<?xml version="1.0" encoding="UTF-8"?>
<svg id="Capa_2" data-name="Capa 2" xmlns="http://www.w3.org/2000/svg" viewBox="0 0 275.75 47.81">
  <defs>
    <style>
      .cls-1 {
        fill: none;
        stroke: #e43c9a;
        stroke-linecap: round;
        stroke-linejoin: bevel;
        stroke-width: 2.5px;
      }

      .cls-2 {
        fill: #72c9d8;
      }

      .cls-3 {
        fill: #e6d255;
      }

      .cls-4 {
        fill: #e43c9a;
      }
    </style>
  </defs>
  <g id="Capa_1-2" data-name="Capa 1">
    <g>
      <line class="cls-1" x1="94.69" y1="31.6" x2="94.69" y2="40.23"/>
      <line class="cls-1" x1="103.31" y1="40.23" x2="94.69" y2="40.23"/>
    </g>
    <path class="cls-2" d="M36.58,32.16H12.24c1.22,4.75,4.68,6.05,10.22,6.05,3.82,0,8.28-.65,12.67-2.74l-.94,9.43c-4.25,2.16-9.07,2.81-13.61,2.81C6.7,47.71,0,40.37,0,28.13,0,16.82,5.98,8.54,19.15,8.54c11.45,0,17.71,7.27,17.71,18.43,0,1.44-.14,3.82-.29,5.18ZM11.95,24.96h13.39c-.07-4.82-2.45-7.2-6.48-7.2-4.61,0-6.48,2.3-6.91,7.2Z"/>
    <path class="cls-2" d="M77.19,21.79v25.78h-12.1v-23.62c0-3.02-1.73-4.61-4.9-4.61-2.16,0-4.32.79-6.05,2.66v25.56h-12.38V10.7h10.94l.79,4.03c2.3-2.66,6.05-5.18,11.02-5.18,8.42,0,12.67,4.9,12.67,12.24Z"/>
    <path class="cls-4" d="M86.89,28.23c0-11.95,7.78-19.59,20.31-19.59,3.6,0,6.91.65,9.87,2.09l-.94,9.15c-2.3-1.01-4.9-1.44-7.63-1.44-5.11,0-9.5,2.74-9.5,9.79s4.75,9.79,9.22,9.79c2.66,0,5.83-.43,8.64-1.73l-.86,9.65c-3.1,1.37-6.41,1.87-8.93,1.87-12.53,0-20.16-7.7-20.16-19.58Z"/>
    <path class="cls-4" d="M119.93,28.23c0-11.52,6.62-19.59,19.87-19.59s19.87,8.06,19.87,19.59-6.55,19.58-19.87,19.58-19.87-7.99-19.87-19.58ZM147.3,28.23c0-6.62-1.94-10.66-7.49-10.66s-7.49,4.03-7.49,10.66,1.94,10.66,7.49,10.66,7.49-3.96,7.49-10.66Z"/>
    <path class="cls-4" d="M188.62,10.94l-1.15,8.93c-1.15-.43-2.45-.72-3.82-.72-3.74,0-6.19,1.51-7.42,4.39v24.12h-11.81V10.79h10.94l.5,4.68c1.73-4.39,4.82-5.83,7.78-5.83,1.87,0,3.53.43,4.97,1.3Z"/>
    <path class="cls-4" d="M208.78,38.02c2.09,0,3.82-.14,5.62-.72l-.79,9.15c-2.52.72-5.11,1.08-7.71,1.08-9.36,0-14.69-4.83-14.69-13.83V1.73l12.39-1.73v9.79h11.09l-.72,8.35h-10.37v14.11c0,3.89,1.44,5.76,5.18,5.76Z"/>
    <path class="cls-4" d="M217.06,28.23c0-11.52,6.62-19.59,19.87-19.59s19.87,8.06,19.87,19.59-6.55,19.58-19.87,19.58-19.87-7.99-19.87-19.58ZM244.42,28.23c0-6.62-1.94-10.66-7.49-10.66s-7.49,4.03-7.49,10.66,1.94,10.66,7.49,10.66,7.49-3.96,7.49-10.66Z"/>
    <circle class="cls-3" cx="267.5" cy="37.55" r="8.25"/>
  </g>
</svg>
