<?xml version="1.0" encoding="UTF-8"?>
<svg id="Capa_2" data-name="Capa 2" xmlns="http://www.w3.org/2000/svg" viewBox="0 0 61.86 61.86">
  <defs>
    <style>
      .cls-1 {
        fill: #72c9d8;
      }

      .cls-2 {
        fill: #e6d255;
      }

      .cls-3 {
        fill: #e43c9a;
      }
    </style>
  </defs>
  <g id="Capa_1-2" data-name="Capa 1">
    <g>
      <g>
        <g>
          <path class="cls-1" d="M9.75,23.14l6.57,13.49c2.3-1.96,2.09-4.23.59-7.3-1.03-2.12-2.6-4.42-4.94-6.29l5.48-2.03c2.35,1.77,4.01,4.27,5.23,6.79,3.75,7.7,1.49,13.4-5.3,16.71-6.27,3.05-12.47,1.98-16.03-5.33-3.09-6.35-.75-11.78,5.44-14.8.8-.39,2.15-.95,2.95-1.24ZM12.41,38.74l-3.62-7.43c-2.66,1.34-3.33,3.3-2.24,5.54,1.24,2.56,3.03,2.97,5.86,1.89Z"/>
          <circle class="cls-2" cx="16.59" cy="50.56" r="5.09"/>
        </g>
        <g>
          <path class="cls-1" d="M38.72,9.75l-13.49,6.57c1.96,2.3,4.23,2.09,7.3.59,2.12-1.03,4.42-2.6,6.29-4.94l2.03,5.48c-1.77,2.35-4.27,4.01-6.79,5.23-7.7,3.75-13.4,1.49-16.71-5.3-3.05-6.27-1.98-12.47,5.33-16.03,6.35-3.09,11.78-.75,14.8,5.44.39.8.95,2.15,1.24,2.95ZM23.12,12.41l7.43-3.62c-1.34-2.66-3.3-3.33-5.54-2.24-2.56,1.24-2.97,3.03-1.89,5.86Z"/>
          <circle class="cls-2" cx="11.3" cy="16.59" r="5.09"/>
        </g>
        <g>
          <path class="cls-1" d="M52.11,38.72l-6.57-13.49c-2.3,1.96-2.09,4.23-.59,7.3,1.03,2.12,2.6,4.42,4.94,6.29l-5.48,2.03c-2.35-1.77-4.01-4.27-5.23-6.79-3.75-7.7-1.49-13.4,5.3-16.71,6.27-3.05,12.47-1.98,16.03,5.33,3.09,6.35.75,11.78-5.44,14.8-.8.39-2.15.95-2.95,1.24ZM49.45,23.12l3.62,7.43c2.66-1.34,3.33-3.3,2.24-5.54-1.24-2.56-3.03-2.97-5.86-1.89Z"/>
          <circle class="cls-2" cx="45.27" cy="11.3" r="5.09"/>
        </g>
        <g>
          <path class="cls-1" d="M23.14,52.11l13.49-6.57c-1.96-2.3-4.23-2.09-7.3-.59-2.12,1.03-4.42,2.6-6.29,4.94l-2.03-5.48c1.77-2.35,4.27-4.01,6.79-5.23,7.7-3.75,13.4-1.49,16.71,5.3,3.05,6.27,1.98,12.47-5.33,16.03-6.35,3.09-11.78.75-14.8-5.44-.39-.8-.95-2.15-1.24-2.95ZM38.74,49.45l-7.43,3.62c1.34,2.66,3.3,3.33,5.54,2.24,2.56-1.24,2.97-3.03,1.89-5.86Z"/>
          <circle class="cls-2" cx="50.56" cy="45.27" r="5.09"/>
        </g>
      </g>
      <g>
        <path class="cls-3" d="M33.37,23.98c.36,0,.65.28.65.62v2.4c.94.05,1.83.22,2.64.56l.4-3.69c-1.25-.58-2.66-.84-4.19-.84-5.32,0-8.62,3.08-8.62,7.91s3.24,7.91,8.56,7.91c1.07,0,2.48-.2,3.79-.76l.37-3.9c-1.19.52-2.54.7-3.67.7-1.89,0-3.91-1.13-3.91-3.95,0-2.54,1.48-3.69,3.34-3.91v-2.42c0-.34.29-.62.65-.62Z"/>
        <path class="cls-3" d="M33.07,31.1l.95-.48v-3.63c-.2-.01-.4-.02-.6-.02-.24,0-.47.02-.7.04v4.42s0,.07.01.11c.03-.18.15-.35.33-.44Z"/>
        <path class="cls-3" d="M37.53,29.56c-.17-.3-.56-.42-.88-.26l-2.63,1.32v.81c0,.34-.29.62-.65.62-.32,0-.58-.22-.64-.51-.02.13,0,.27.06.39.17.3.56.42.88.26l3.58-1.8c.32-.16.44-.53.27-.83Z"/>
      </g>
    </g>
  </g>
</svg>